<svg width="82" height="82" viewBox="0 0 82 82" fill="none" xmlns="http://www.w3.org/2000/svg">
<rect width="82" height="82" fill="#E5E5E5"/>
<rect width="960" height="1350" transform="translate(-439 -40)" fill="#F3F7FA"/>
<g filter="url(#filter0_d_0_1)">
<mask id="path-1-inside-1_0_1" fill="white">
<path fill-rule="evenodd" clip-rule="evenodd" d="M41 69.0696C57.5685 69.0696 71 56.0547 71 40C71 23.9453 57.5685 10.9304 41 10.9304C24.4315 10.9304 11 23.9453 11 40C11 56.0547 24.4315 69.0696 41 69.0696Z"/>
</mask>
<path fill-rule="evenodd" clip-rule="evenodd" d="M41 69.0696C57.5685 69.0696 71 56.0547 71 40C71 23.9453 57.5685 10.9304 41 10.9304C24.4315 10.9304 11 23.9453 11 40C11 56.0547 24.4315 69.0696 41 69.0696Z" fill="#2196F3"/>
<path fill-rule="evenodd" clip-rule="evenodd" d="M41 69.0696C57.5685 69.0696 71 56.0547 71 40C71 23.9453 57.5685 10.9304 41 10.9304C24.4315 10.9304 11 23.9453 11 40C11 56.0547 24.4315 69.0696 41 69.0696Z" stroke="#42A5F5" stroke-width="8" mask="url(#path-1-inside-1_0_1)"/>
</g>
<mask id="mask0_0_1" style="mask-type:luminance" maskUnits="userSpaceOnUse" x="11" y="10" width="60" height="60">
<path fill-rule="evenodd" clip-rule="evenodd" d="M41 69.0696C57.5685 69.0696 71 56.0547 71 40C71 23.9453 57.5685 10.9304 41 10.9304C24.4315 10.9304 11 23.9453 11 40C11 56.0547 24.4315 69.0696 41 69.0696Z" fill="white"/>
</mask>
<g mask="url(#mask0_0_1)">
<path d="M13.714 33.096H67.536" stroke="#42A5F5" stroke-width="4" stroke-linecap="square"/>
<path d="M13.714 48.3575H67.536" stroke="#42A5F5" stroke-width="4" stroke-linecap="square"/>
<path d="M40.25 15.2908C40.25 15.2908 30.2878 26.5093 30.5035 40.7268C30.7191 54.9442 40.25 64.7092 40.25 64.7092" stroke="#42A5F5" stroke-width="4" stroke-linecap="round" stroke-linejoin="round"/>
<path d="M41 15.2908C41 15.2908 50.9622 26.5093 50.7465 40.7268C50.5309 54.9442 41 64.7092 41 64.7092" stroke="#42A5F5" stroke-width="4" stroke-linecap="round" stroke-linejoin="round"/>
</g>
<path fill-rule="evenodd" clip-rule="evenodd" d="M50.5022 30.4453C50.7022 30.3298 50.9227 30.2581 51.1532 30.2436C52.1697 30.1796 55.1056 30.0955 55.7423 31.1984C56.3791 32.3013 54.8374 34.8011 54.2737 35.6488C54.1459 35.841 53.9736 35.9959 53.7738 36.1113L47.698 39.6191L48.5419 56.7195C48.5537 56.9589 48.4326 57.1854 48.2269 57.3086L46.9777 58.0568C46.8131 58.1554 46.6134 58.1761 46.432 58.1135L45.4852 57.7865C45.3266 57.7317 45.1953 57.6177 45.119 57.4683L38.661 44.8366L32.2919 48.5138L31.605 53.1853C31.5574 53.5087 31.277 53.7463 30.9502 53.7401L30.4522 53.7306C30.2004 53.7259 29.974 53.5758 29.8714 53.3457L28.0817 49.3297C26.8516 49.369 25.6967 49.2481 25.3868 48.7114C25.0773 48.1753 25.5505 47.1195 26.2006 46.0785L23.6371 42.5476C23.4891 42.3438 23.4724 42.0727 23.5942 41.8522L23.835 41.4162C23.993 41.1301 24.339 41.006 24.6428 41.1265L29.005 42.8567L35.3855 39.173L27.7268 27.3442C27.6356 27.2033 27.6025 27.0326 27.6343 26.8679L27.8246 25.8844C27.861 25.6961 27.9788 25.5335 28.1465 25.4402L29.4191 24.7324C29.6286 24.6159 29.8853 24.6243 30.0867 24.7542L44.3845 33.9774L50.5022 30.4453Z" fill="white"/>
<mask id="mask1_0_1" style="mask-type:luminance" maskUnits="userSpaceOnUse" x="23" y="24" width="33" height="35">
<path fill-rule="evenodd" clip-rule="evenodd" d="M50.5022 30.4453C50.7022 30.3298 50.9227 30.2581 51.1532 30.2436C52.1697 30.1796 55.1056 30.0955 55.7423 31.1984C56.3791 32.3013 54.8374 34.8011 54.2737 35.6488C54.1459 35.841 53.9736 35.9959 53.7738 36.1113L47.698 39.6191L48.5419 56.7195C48.5537 56.9589 48.4326 57.1854 48.2269 57.3086L46.9777 58.0568C46.8131 58.1554 46.6134 58.1761 46.432 58.1135L45.4852 57.7865C45.3266 57.7317 45.1953 57.6177 45.119 57.4683L38.661 44.8366L32.2919 48.5138L31.605 53.1853C31.5574 53.5087 31.277 53.7463 30.9502 53.7401L30.4522 53.7306C30.2004 53.7259 29.974 53.5758 29.8714 53.3457L28.0817 49.3297C26.8516 49.369 25.6967 49.2481 25.3868 48.7114C25.0773 48.1753 25.5505 47.1195 26.2006 46.0785L23.6371 42.5476C23.4891 42.3438 23.4724 42.0727 23.5942 41.8522L23.835 41.4162C23.993 41.1301 24.339 41.006 24.6428 41.1265L29.005 42.8567L35.3855 39.173L27.7268 27.3442C27.6356 27.2033 27.6025 27.0326 27.6343 26.8679L27.8246 25.8844C27.861 25.6961 27.9788 25.5335 28.1465 25.4402L29.4191 24.7324C29.6286 24.6159 29.8853 24.6243 30.0867 24.7542L44.3845 33.9774L50.5022 30.4453Z" fill="white"/>
</mask>
<g mask="url(#mask1_0_1)">
<rect x="44.8436" y="32.2014" width="1.30853" height="12.4084" transform="rotate(60 44.8436 32.2014)" fill="#EBECF2"/>
<path fill-rule="evenodd" clip-rule="evenodd" d="M48.2269 57.3086C48.4326 57.1854 48.5537 56.959 48.5418 56.7195L47.6704 39.0601L38.434 44.3927L45.1189 57.4683C45.1953 57.6177 45.3266 57.7318 45.4852 57.7865L46.432 58.1135C46.6133 58.1761 46.8131 58.1554 46.9776 58.0568L48.2269 57.3086Z" fill="#DEE1E3"/>
<path opacity="0.4" fill-rule="evenodd" clip-rule="evenodd" d="M28.1442 49.2188L28.0552 49.2702L29.8714 53.3457C29.974 53.5758 30.2004 53.7259 30.4523 53.7306L30.9502 53.7401C31.277 53.7463 31.5575 53.5087 31.605 53.1853L32.3306 48.2509L31.8676 48.5182C31.7243 48.6009 31.5702 48.6627 31.4087 48.6988C30.8586 48.8216 29.4624 49.1126 28.1442 49.2188Z" fill="#DEE1E3"/>
<path fill-rule="evenodd" clip-rule="evenodd" d="M38.5558 44.6309L47.6852 39.36L47.7844 41.3714L40.2635 47.9712L38.5558 44.6309Z" fill="#C5C6CC"/>
<path fill-rule="evenodd" clip-rule="evenodd" d="M56.7899 34.3699L26.9989 51.5697C26.9989 51.5697 26.1199 49.981 25.3869 48.7114C25.378 48.696 25.3696 48.6805 25.3617 48.6648C26.7132 48.7625 29.4345 48.6526 32.0737 47.1289L52.6982 35.2213C54.9898 33.8982 55.5511 32.1849 55.8603 31.4484C56.3388 32.7335 56.7899 34.3699 56.7899 34.3699Z" fill="#DEE1E3"/>
</g>
<defs>
<filter id="filter0_d_0_1" x="0" y="0.930359" width="82" height="80.1393" filterUnits="userSpaceOnUse" color-interpolation-filters="sRGB">
<feFlood flood-opacity="0" result="BackgroundImageFix"/>
<feColorMatrix in="SourceAlpha" type="matrix" values="0 0 0 0 0 0 0 0 0 0 0 0 0 0 0 0 0 0 127 0" result="hardAlpha"/>
<feOffset dy="1"/>
<feGaussianBlur stdDeviation="5.5"/>
<feColorMatrix type="matrix" values="0 0 0 0 0.215686 0 0 0 0 0.407843 0 0 0 0 0.556863 0 0 0 0.3 0"/>
<feBlend mode="normal" in2="BackgroundImageFix" result="effect1_dropShadow_0_1"/>
<feBlend mode="normal" in="SourceGraphic" in2="effect1_dropShadow_0_1" result="shape"/>
</filter>
</defs>
</svg>
